<svg xmlns="http://www.w3.org/2000/svg" viewBox="0 0 114.56 135.97"><defs><style>.cls-1{fill:#f26b22;}.cls-2{fill:#ec1a3b;}.cls-3{font-size:19.94px;fill:#141424;font-family:Montserrat-ExtraBold, Montserrat;font-weight:800;letter-spacing:-0.04em;}.cls-4{letter-spacing:-0.02em;}.cls-5{letter-spacing:0em;}</style></defs><title>Asset 1</title><g id="Layer_2" data-name="Layer 2"><g id="Layer_1-2" data-name="Layer 1"><path class="cls-1" d="M111.75,107.59H95.5a4.3,4.3,0,0,1-3.72-2.14l-3.94-6.83a2.81,2.81,0,0,1,2.43-4.21h16.25a4.28,4.28,0,0,1,3.72,2.15l3.94,6.83A2.8,2.8,0,0,1,111.75,107.59Z"/><path class="cls-2" d="M93.49,67.54l-27.12-47,.08-.15L54.66,0,1.38,92.26A10.12,10.12,0,0,0,0,97.36a10.23,10.23,0,0,0,19.08,5.13L54.57,41,69.89,67.54H53.66A10.22,10.22,0,0,0,43.45,77.75h0A10.21,10.21,0,0,0,53.66,88h51.61Z"/><text class="cls-3" transform="translate(3 130.63) scale(0.9 1)">A<tspan class="cls-4" x="14.89" y="0">V</tspan><tspan class="cls-5" x="29.86" y="0">ERROES</tspan></text></g></g></svg>