<svg width="100" height="100" viewBox="0 0 100 100" fill="none" xmlns="http://www.w3.org/2000/svg">
<path d="M88.4251 23.2694C88.4251 42.4833 98.3778 55.6778 98.3778 64.9361C98.3778 74.1944 93.0556 93.6389 50.464 93.6389C7.87228 93.6389 1.61951 67.4805 1.61951 57.2972C1.61951 9.6111 88.4251 -10.7584 88.4251 23.2694Z" fill="#EFEFEF"/>
<path d="M9.71391 16.6666C8.79447 16.6666 7.9028 16.3638 7.16391 15.7888C6.28613 15.1055 5.72502 14.1194 5.58891 13.0166C5.45002 11.9138 5.75002 10.8222 6.43336 9.94162C7.11669 9.06384 8.1028 8.50273 9.20558 8.36662C10.3028 8.22218 11.4 8.52773 12.2806 9.21107C13.1611 9.8944 13.7195 10.8805 13.8556 11.9833C13.9945 13.0861 13.6917 14.1805 13.0111 15.0583C12.3278 15.9361 11.3417 16.4972 10.2389 16.6333C10.0639 16.6555 9.88891 16.6666 9.71391 16.6666ZM9.72225 11.1111C9.66391 11.1111 9.60836 11.1138 9.55002 11.1222C8.79169 11.2166 8.25002 11.9138 8.34447 12.6722C8.43891 13.4305 9.13058 13.9694 9.89447 13.8777C10.6528 13.7833 11.1945 13.0861 11.1 12.3277C11.0111 11.6277 10.4139 11.1111 9.72225 11.1111Z" fill="#A4AFC1"/>
<path d="M75.6944 75.6944H24.3056C21.2361 75.6944 18.75 73.2083 18.75 70.1388V28.4722H81.25V70.1388C81.25 73.2083 78.7639 75.6944 75.6944 75.6944Z" fill="#F3F3F1"/>
<path d="M81.25 28.4722H18.75V24.3056C18.75 21.2361 21.2361 18.75 24.3056 18.75H75.6944C78.7639 18.75 81.25 21.2361 81.25 24.3056V28.4722Z" fill="#EE4248"/>
<path d="M65.2778 81.25C74.099 81.25 81.25 74.099 81.25 65.2778C81.25 56.4566 74.099 49.3055 65.2778 49.3055C56.4566 49.3055 49.3055 56.4566 49.3055 65.2778C49.3055 74.099 56.4566 81.25 65.2778 81.25Z" fill="#EE4248"/>
<path d="M70.1389 38.1945H29.8611V50.6945H70.1667L70.1389 38.1945Z" fill="#EE4248"/>
<path d="M30.5556 18.75H24.3056C21.2361 18.75 18.75 21.2361 18.75 24.3056V28.4722H25V24.3056C25 21.2361 27.4861 18.75 30.5556 18.75Z" fill="#EE4248"/>
<path d="M55.5555 65.2778C55.5555 57.5278 61.0778 51.0694 68.4028 49.6167C67.3917 49.4167 66.3472 49.3055 65.2778 49.3055C56.4555 49.3055 49.3055 56.4555 49.3055 65.2778C49.3055 74.1 56.4555 81.25 65.2778 81.25C66.3472 81.25 67.3917 81.1417 68.4028 80.9389C61.0778 79.4861 55.5555 73.0278 55.5555 65.2778Z" fill="#EE4248"/>
<path d="M29.8611 38.1945H36.1111V50.6945H29.8611V38.1945Z" fill="#EE4248"/>
<path d="M25 70.1388V28.4722H18.75V70.1388C18.75 73.2083 21.2361 75.6944 24.3056 75.6944H30.5556C27.4861 75.6944 25 73.2083 25 70.1388Z" fill="#D5DBE1"/>
<path d="M65.2777 83.3333C55.3222 83.3333 47.2222 75.2333 47.2222 65.2777C47.2222 55.3222 55.3222 47.2222 65.2777 47.2222C75.2333 47.2222 83.3333 55.3222 83.3333 65.2777C83.3333 75.2333 75.2333 83.3333 65.2777 83.3333ZM65.2777 51.3888C57.6194 51.3888 51.3888 57.6194 51.3888 65.2777C51.3888 72.9361 57.6194 79.1666 65.2777 79.1666C72.9361 79.1666 79.1666 72.9361 79.1666 65.2777C79.1666 57.6194 72.9361 51.3888 65.2777 51.3888Z" fill="black"/>
<path d="M62.5 72.9166C61.9472 72.9166 61.4166 72.6972 61.0277 72.3055L55.4722 66.75L58.4194 63.8028L62.4 67.7833L70.6555 58.35L73.7916 61.0944L64.0694 72.2055C63.6888 72.6389 63.1472 72.8972 62.5694 72.9166C62.5472 72.9166 62.5222 72.9166 62.5 72.9166Z" fill="black"/>
<path d="M45.8612 52.7777H29.8612C28.7112 52.7777 27.7778 51.8444 27.7778 50.6944V38.1944C27.7778 37.0444 28.7112 36.1111 29.8612 36.1111H70.139C71.289 36.1111 72.2223 37.0444 72.2223 38.1944V41.4722H68.0556V40.2778H31.9445V48.6111H45.8612V52.7777Z" fill="black"/>
<path d="M27.9166 56.9166H43.8889V61.0833H27.9166V56.9166Z" fill="black"/>
<path d="M27.9166 65.25H43.1666V69.4167H27.9166V65.25Z" fill="black"/>
<path d="M43.3055 77.7777H24.3055C20.0916 77.7777 16.6666 74.3527 16.6666 70.1388V24.3055C16.6666 20.0916 20.0916 16.6666 24.3055 16.6666H75.6944C79.9083 16.6666 83.3333 20.0916 83.3333 24.3055V47H79.1666V24.3055C79.1666 22.3916 77.6083 20.8333 75.6944 20.8333H24.3055C22.3916 20.8333 20.8333 22.3916 20.8333 24.3055V70.1388C20.8333 72.0527 22.3916 73.6111 24.3055 73.6111H43.3055V77.7777Z" fill="black"/>
<path d="M18.75 26.3889H81.25V30.5556H18.75V26.3889Z" fill="black"/>
</svg>
