<svg xmlns="http://www.w3.org/2000/svg" viewBox="0 0 394.22 516.71"><defs><style>.cls-1{isolation:isolate;}.cls-2{fill:#61beeb;}.cls-3,.cls-9{fill:#fff;}.cls-4{fill:#d7d6d6;}.cls-5{fill:#e9e8e8;mix-blend-mode:multiply;}.cls-6{fill:#da6e27;}.cls-7{fill:#f8961d;}.cls-8{font-size:78.74px;fill:#ed2024;font-family:DistroHeavy, Distro Heavy;}.cls-9{font-size:194.77px;font-family:Hey-August, Hey August;}</style></defs><title>logo-gaspol</title><g class="cls-1"><g id="Layer_2" data-name="Layer 2"><g id="Layer_1-2" data-name="Layer 1"><path class="cls-2" d="M84.55,22.74C46,62.38,22.34,115.59,17.67,170.59c-1.3,15.35-1.12,31.3,1.54,46.5.29,1.62,1.93.47,1.86-.74-1.6-27.48-.71-54.6,5.46-81.54A247,247,0,0,1,56.84,60.52,238.6,238.6,0,0,1,85,23.43C85.41,23,85,22.25,84.55,22.74Z"/><path class="cls-2" d="M51.44,24.51C27.11,48,10.58,80.29,3.19,113.12A137.46,137.46,0,0,0,0,141.85c0,1.89,2,1.47,2.2-.15,2.35-21.34,7.11-42.5,15.42-62.34S37.85,41.61,52,25.25C52.34,24.82,52,24,51.44,24.51Z"/><path class="cls-2" d="M336.92,360.4c27.87-47.73,38.07-105.07,29.39-159.59-2.42-15.21-6.43-30.65-12.66-44.76-.67-1.51-2,0-1.63,1.16,8.16,26.29,13.8,52.84,14.29,80.46a246.84,246.84,0,0,1-11.58,79.4,238.83,238.83,0,0,1-18.46,42.78C336,360.32,336.57,361,336.92,360.4Z"/><path class="cls-2" d="M368.62,350.73c18-28.68,26.28-64,25.56-97.6a137.77,137.77,0,0,0-3.81-28.66c-.43-1.84-2.32-.94-2.1.67,2.85,21.28,3.31,43,0,64.22-3.32,21.41-10.57,41.5-20.34,60.78C367.68,350.65,368.24,351.34,368.62,350.73Z"/><path class="cls-3" d="M353.91,246.91c3.19,103.48-65.36,174.23-152.53,176.92S41.43,360.12,38.24,256.64,86.79,4.6,188.36,1.47,350.72,143.44,353.91,246.91Z"/><path class="cls-4" d="M201.42,425.25c-92.28,2.85-161.5-68.05-164.6-168.56C33.65,153.8,85.77,3.21,188.31.05S352.16,144,355.33,246.87C358.43,347.39,293.7,422.41,201.42,425.25ZM188.4,2.9C87.69,6,36.53,154.88,39.67,256.6c3,98.87,71,168.6,161.66,165.8S355.53,345.82,352.48,247C349.35,145.24,289.11-.21,188.4,2.9Z"/><path class="cls-5" d="M188.36,1.47C86.79,4.6,35.05,153.17,38.24,256.64s76,169.87,163.14,167.19S357.1,350.39,353.91,246.91,289.93-1.66,188.36,1.47Zm11.8,382.86c-77.83,2.4-142.81-56.89-145.66-149.27S97.85,10,188.54,7.23,333.5,134,336.34,226.37,278,381.93,200.16,384.33Z"/><circle class="cls-6" cx="196.96" cy="280.66" r="119.6" transform="translate(-140.77 221.48) rotate(-45)"/><circle class="cls-7" cx="198.85" cy="274.35" r="113.01" transform="translate(-135.75 220.96) rotate(-45)"/><path class="cls-3" d="M170.54,177.86c-16.54,2.87-31.73,9.82-44,21.48-11.52,11-22.83,27-23.69,43.41-.19,3.46,4.77,2,5.59-.23,2.62-7.13,4.92-14.4,8.47-21.15A79.17,79.17,0,0,1,130.37,203c10.81-11.08,24.72-20,40-23.28C171.45,179.44,172,177.61,170.54,177.86Z"/><path class="cls-3" d="M106.71,254.59l-.33-.8a2,2,0,0,0-1-.85,1.58,1.58,0,0,0-.84-.3,2.89,2.89,0,0,0-1.46,0l-1,.27a5.91,5.91,0,0,0-1.93,1.22l-.25.2-.12.1a3.49,3.49,0,0,0-.72.85c-.16.3-.32.6-.47.9a.19.19,0,0,0,0,.07l-.15.47a3,3,0,0,0-.16,1.67,2.32,2.32,0,0,0,.85,1.35,2.94,2.94,0,0,0,1.58.56,4.43,4.43,0,0,0,1.91-.29l.49-.21.06,0a4.37,4.37,0,0,0,1.5-.88,4.18,4.18,0,0,0,1.17-1.2l.09-.12.17-.26a2.93,2.93,0,0,0,.58-1.34A2.31,2.31,0,0,0,106.71,254.59Z"/><text class="cls-8" transform="translate(74.49 496.87)">GASPOL</text><text class="cls-9" transform="translate(137.22 356.8)">G</text></g></g></g></svg>