<svg xmlns="http://www.w3.org/2000/svg" viewBox="0 0 348 340.75"><defs><style>.cls-1{fill:#cfbc8a;}.cls-2{fill:#9a816c;}.cls-3{fill:#b4a485;}.cls-4{fill:#96b288;}.cls-5{fill:#427d67;}.cls-6{fill:#562b15;}.cls-7{fill:#2f4d87;}.cls-8{fill:#efbfb2;}.cls-9{fill:#f16b4d;}.cls-10{fill:#d54641;}.cls-11{fill:#b6d7e7;}.cls-12{fill:#7fb6cd;}.cls-13{fill:#ce9065;}.cls-14{fill:#f58470;}.cls-15{fill:#010101;}.cls-16{fill:#fff;}.cls-17{fill:#b53328;}.cls-18{fill:#f15836;}.cls-19{fill:#f15d4e;}.cls-20{fill:#f59b78;}.cls-21{fill:#e5f5fd;}.cls-22{fill:#5d5e5e;}.cls-23{fill:#ef4040;}.cls-24{fill:#ef3c25;}.cls-25{fill:#0679a0;}.cls-26{fill:#290f0e;}.cls-27{fill:#73adb9;}.cls-28{fill:#035a77;}</style></defs><title>success</title><g id="Layer_2" data-name="Layer 2"><g id="Layer_1-2" data-name="Layer 1"><rect class="cls-1" x="23.26" y="201.25" width="185.99" height="139.49"/><rect class="cls-2" x="38.7" y="216.17" width="156.63" height="124.58"/><rect class="cls-3" x="46.7" y="224.17" width="140.63" height="116.22"/><rect class="cls-4" x="256" width="27" height="338.5"/><rect class="cls-5" x="256" y="3.37" width="7" height="1.64"/><rect class="cls-5" x="256" y="11.37" width="7" height="1.64"/><rect class="cls-5" x="256" y="19.38" width="7" height="1.64"/><rect class="cls-5" x="256" y="27.39" width="7" height="1.64"/><rect class="cls-5" x="256" y="35.4" width="7" height="1.64"/><rect class="cls-5" x="256" y="43.4" width="7" height="1.64"/><rect class="cls-5" x="256" y="51.41" width="7" height="1.64"/><rect class="cls-5" x="256" y="59.42" width="7" height="1.64"/><rect class="cls-5" x="256" y="67.43" width="7" height="1.64"/><rect class="cls-5" x="256" y="75.43" width="7" height="1.64"/><rect class="cls-5" x="256" y="83.44" width="7" height="1.64"/><rect class="cls-5" x="256" y="91.45" width="7" height="1.64"/><rect class="cls-5" x="256" y="99.46" width="7" height="1.64"/><rect class="cls-5" x="256" y="107.46" width="7" height="1.64"/><rect class="cls-5" x="256" y="115.47" width="7" height="1.64"/><rect class="cls-5" x="256" y="123.48" width="7" height="1.64"/><rect class="cls-5" x="256" y="131.49" width="7" height="1.64"/><rect class="cls-5" x="256" y="139.49" width="7" height="1.64"/><rect class="cls-5" x="256" y="147.5" width="7" height="1.64"/><rect class="cls-5" x="256" y="155.51" width="7" height="1.64"/><rect class="cls-5" x="256" y="163.52" width="7" height="1.64"/><rect class="cls-5" x="256" y="171.52" width="7" height="1.64"/><rect class="cls-5" x="256" y="179.53" width="7" height="1.64"/><rect class="cls-5" x="256" y="187.54" width="7" height="1.64"/><rect class="cls-5" x="256" y="195.55" width="7" height="1.64"/><rect class="cls-5" x="256" y="203.55" width="7" height="1.64"/><rect class="cls-5" x="256" y="211.56" width="7" height="1.64"/><rect class="cls-5" x="256" y="219.57" width="7" height="1.64"/><rect class="cls-5" x="256" y="227.58" width="7" height="1.64"/><rect class="cls-5" x="256" y="235.58" width="7" height="1.64"/><rect class="cls-5" x="256" y="243.59" width="7" height="1.64"/><rect class="cls-5" x="256" y="251.6" width="7" height="1.64"/><rect class="cls-5" x="256" y="259.61" width="7" height="1.64"/><rect class="cls-5" x="256" y="267.61" width="7" height="1.64"/><rect class="cls-5" x="256" y="275.62" width="7" height="1.64"/><rect class="cls-5" x="256" y="283.63" width="7" height="1.64"/><rect class="cls-5" x="256" y="291.64" width="7" height="1.64"/><rect class="cls-5" x="256" y="299.64" width="7" height="1.64"/><rect class="cls-5" x="256" y="307.65" width="7" height="1.64"/><rect class="cls-5" x="256" y="315.66" width="7" height="1.64"/><rect class="cls-5" x="256" y="323.67" width="7" height="1.64"/><rect class="cls-5" x="256" y="331.67" width="7" height="1.64"/><rect class="cls-5" x="275.67" y="3.37" width="7" height="1.64"/><rect class="cls-5" x="275.67" y="11.37" width="7" height="1.64"/><rect class="cls-5" x="275.67" y="19.38" width="7" height="1.64"/><rect class="cls-5" x="275.67" y="27.39" width="7" height="1.64"/><rect class="cls-5" x="275.67" y="35.4" width="7" height="1.64"/><rect class="cls-5" x="275.67" y="43.4" width="7" height="1.64"/><rect class="cls-5" x="275.67" y="51.41" width="7" height="1.64"/><rect class="cls-5" x="275.67" y="59.42" width="7" height="1.64"/><rect class="cls-5" x="275.67" y="67.43" width="7" height="1.64"/><rect class="cls-5" x="275.67" y="75.43" width="7" height="1.64"/><rect class="cls-5" x="275.67" y="83.44" width="7" height="1.64"/><rect class="cls-5" x="275.67" y="91.45" width="7" height="1.64"/><rect class="cls-5" x="275.67" y="99.46" width="7" height="1.64"/><rect class="cls-5" x="275.67" y="107.46" width="7" height="1.64"/><rect class="cls-5" x="275.67" y="115.47" width="7" height="1.64"/><rect class="cls-5" x="275.67" y="123.48" width="7" height="1.64"/><rect class="cls-5" x="275.67" y="131.49" width="7" height="1.64"/><rect class="cls-5" x="275.67" y="139.49" width="7" height="1.64"/><rect class="cls-5" x="275.67" y="147.5" width="7" height="1.64"/><rect class="cls-5" x="275.67" y="155.51" width="7" height="1.64"/><rect class="cls-5" x="275.67" y="163.52" width="7" height="1.64"/><rect class="cls-5" x="275.67" y="171.52" width="7" height="1.64"/><rect class="cls-5" x="275.67" y="179.53" width="7" height="1.64"/><rect class="cls-5" x="275.67" y="187.54" width="7" height="1.64"/><rect class="cls-5" x="275.67" y="195.55" width="7" height="1.64"/><rect class="cls-5" x="275.67" y="203.55" width="7" height="1.64"/><rect class="cls-5" x="275.67" y="211.56" width="7" height="1.64"/><rect class="cls-5" x="275.67" y="219.57" width="7" height="1.64"/><rect class="cls-5" x="275.67" y="227.58" width="7" height="1.64"/><rect class="cls-5" x="275.67" y="235.58" width="7" height="1.64"/><rect class="cls-5" x="275.67" y="243.59" width="7" height="1.64"/><rect class="cls-5" x="275.67" y="251.6" width="7" height="1.64"/><rect class="cls-5" x="275.67" y="259.61" width="7" height="1.64"/><rect class="cls-5" x="275.67" y="267.61" width="7" height="1.64"/><rect class="cls-5" x="275.67" y="275.62" width="7" height="1.64"/><rect class="cls-5" x="275.67" y="283.63" width="7" height="1.64"/><rect class="cls-5" x="275.67" y="291.64" width="7" height="1.64"/><rect class="cls-5" x="275.67" y="299.64" width="7" height="1.64"/><rect class="cls-5" x="275.67" y="307.65" width="7" height="1.64"/><rect class="cls-5" x="275.67" y="315.66" width="7" height="1.64"/><rect class="cls-5" x="275.67" y="323.67" width="7" height="1.64"/><rect class="cls-5" x="275.67" y="331.67" width="7" height="1.64"/><path class="cls-6" d="M150.3,320.25h0a8.71,8.71,0,0,0,10.33.45l.66-.45,22.16,11.41a4.61,4.61,0,0,1,2.49,3.82h0a4.61,4.61,0,0,1-4.58,4.94h-28.5a4.3,4.3,0,0,1-4.06-2.92l-1.45-4.17a8.52,8.52,0,0,1,.13-5.95Z"/><path class="cls-6" d="M76.3,320.25h2a8.69,8.69,0,0,0,10.32.45l.67-.45,22.16,11.41a4.61,4.61,0,0,1,2.49,3.82h0a4.61,4.61,0,0,1-4.58,4.94H80.86a4.3,4.3,0,0,1-4.06-2.92l-1.45-4.17c-.07-.19-.13-.39-.18-.58a18.08,18.08,0,0,1,.74-11.5Z"/><path class="cls-7" d="M143.46,199.1s21.21,34.4,27.87,49.73-4,74.67-4,74.67l-22,1.33s11.34-54,7.34-65.33S121,220.83,125,216.83c4.35-4.34,3.67,40-3.67,56-3.55,7.76-25.33,51-25.33,51l-23.33-.33S103,269.17,105,259.83s-13.67-31-13-40.33,5-20.4,5-20.4Z"/><path class="cls-8" d="M174.8,172.54l6.17-3.83s3.18-1.92,4.21-7.38,1.64-7.79,3.62-7.47c5,.82,2.52,6,2,8.57s4.5-1.76,7,.92a3.66,3.66,0,0,1,0,5.19s3.93,0,3.69,4a4.91,4.91,0,0,1-1.39,2.9s1.95,2.05,1.39,3.55a6.7,6.7,0,0,1-2.19,3s1.5.76-1,3.13S181,182.4,181,182.4Z"/><path class="cls-9" d="M166.85,124.7c-1.82,8-3.36,9.29-4.18,11.46-1.52,4-11,24.93-13.33,27.43s-5.87,35.5-5.87,35.5H97s.1-1.55.3-4.18A110.77,110.77,0,0,0,102,179.83c4.15-18.67,1.35-34.57,4.25-43l.11-.3c.07-.17.13-.33.2-.49.18-.44.37-.88.56-1.31a70.92,70.92,0,0,1,10.31-16.22,22.21,22.21,0,0,1,1.68-1.81,21.29,21.29,0,0,1,1.85-1.59,22,22,0,0,1,5.76-3.21l.63-.23a19.76,19.76,0,0,1,2.71-.74,16.65,16.65,0,0,1,1.72-.28,20.37,20.37,0,0,1,3.75-.16l3.72.17,17.55.8A10.81,10.81,0,0,1,166.85,124.7Z"/><path class="cls-10" d="M143.58,147.4c-3.24,2.11-7.29,4.75-11.46,3.92a16.48,16.48,0,0,1-6.66-3c-1.41-1.06-3.63-.53-3.86,1l-1,6.37a1.37,1.37,0,0,0,.15,1.1,2.19,2.19,0,0,0,1.4.58,28.16,28.16,0,0,0,8.3,0,19.53,19.53,0,0,0,8.06-4c2.42-2.2,6.37-6.57,5.05-5.69"/><path class="cls-10" d="M154.5,111.41h0s-3.21,14.94-6,23.19-6.52,20.25-8.39,27.25-8.06,37.25-8.06,37.25h8.78l7.29-44.58,10.47-24.67,1.4-15.33Z"/><path class="cls-11" d="M139.39,110.52a1.33,1.33,0,0,0-.14.19c-1.33,1.73-4.07,5.68-5.17,7.3-15.13,22.12-16.27,46.91-17.79,64.38h0c-.22,2.59.21,6.54.62,10.92a22.7,22.7,0,0,1-22.62,24.84H86.67a208.33,208.33,0,0,0,10.64-23.25A110.77,110.77,0,0,0,102,179.83c4.15-18.67,1.35-34.57,4.25-43l.11-.3c.06-.17.12-.33.19-.49.18-.44.37-.88.57-1.31a70.92,70.92,0,0,1,10.31-16.22,22.21,22.21,0,0,1,1.68-1.81,23.17,23.17,0,0,1,1.85-1.59,22,22,0,0,1,5.76-3.21l.63-.23a19.76,19.76,0,0,1,2.71-.74,16.65,16.65,0,0,1,1.72-.28,20.37,20.37,0,0,1,3.75-.16Z"/><path class="cls-12" d="M134.48,114.52l-.4,3.49c-15.13,22.12-16.27,46.92-17.79,64.39l-9.73-39.84,15.81-13.46,1.12-8.23Z"/><path class="cls-11" d="M166.84,124.7c-1.81,8,.49,21.47-4.17,28.8-2.3,3.61-12.47,6.79-13.34,10.1-7.33,27.9,5.34,51.9,5.34,51.9l-11.23-9.28A19.7,19.7,0,0,1,136.53,188c.29-1.84.6-3.71.91-5.58,1.78-10.57,4-21.52,7.26-30.56,5.78-16,8.84-23.94,9.7-37.8,0-.63.08-1.28.11-1.94,0-.24,0-.47,0-.69l2.3.11A10.79,10.79,0,0,1,166.84,124.7Z"/><path class="cls-11" d="M153.71,121.13l8.32-8s21.29,26.1,38.63,27,37-20.1,37-20.1l11.66,12.4S217,155.49,198,153.77c-10.69-1-38-17.05-38-17.05Z"/><path class="cls-12" d="M156.36,130.35l2.06,9L137,185.17c1.78-10.57,5.66-22.54,8.92-31.58,5.78-16,8.84-23.94,9.7-37.8l4.43,9.06Z"/><path class="cls-6" d="M136.45,29.36c11.29,1.46,10.8-4.08,27.26.63C182,35.24,193.6,51.83,193.6,75.1c0,16.5-2.09,29.48-36.51,28.24-13.9-.5-1.23-.27-12.6.44C82,107.64,109.51,25.87,136.45,29.36Z"/><path class="cls-8" d="M125.3,70.05s-5-7.5-10.44-3.21.79,19.2,10.78,16.53Z"/><path class="cls-13" d="M125.43,75.1l.18,6.86c-8.54.89-12.5-11.19-8.5-12.54C120.34,68.34,123.93,72.74,125.43,75.1Z"/><path class="cls-13" d="M115.58,71.75l0-.14c0-.1.09-.23.16-.4a2.77,2.77,0,0,1,.84-1.12,1.58,1.58,0,0,1,.36-.2l.2-.06,0,0h.05l.14,0,.24,0h.49l.25,0a5.66,5.66,0,0,1,2.08.85,11,11,0,0,1,1,.7l.91.76c.57.52,1.1,1,1.55,1.49l1.5,1.53a5.6,5.6,0,0,0-.23-.55,12.55,12.55,0,0,0-.74-1.39c-.18-.27-.37-.57-.6-.87a11.68,11.68,0,0,0-.75-.92,9.89,9.89,0,0,0-2-1.71,6.84,6.84,0,0,0-1.24-.62,4.64,4.64,0,0,0-1.37-.28h-.35a1.84,1.84,0,0,0-.33,0l-.34.06-.3.09-.13,0L117,69l-.08,0a1.43,1.43,0,0,0-.27.15,2.18,2.18,0,0,0-.45.39,2.38,2.38,0,0,0-.48.85,2.93,2.93,0,0,0-.13.69c0,.2,0,.35,0,.45Z"/><path class="cls-8" d="M176.58,73.24s5.9-6.82,10.75-1.89-3.16,19-12.75,15.07Z"/><path class="cls-13" d="M175.82,78.24l-1,6.78c8.36,2,13.78-9.56,10-11.39C181.71,72.16,177.6,76.08,175.82,78.24Z"/><path class="cls-13" d="M186,76.14l0-.15c0-.1-.06-.24-.11-.42a2.73,2.73,0,0,0-.69-1.22,1.36,1.36,0,0,0-.34-.23,1.11,1.11,0,0,0-.19-.09l-.05,0h0l-.13,0-.24-.06-.23,0-.25,0h-.26a5.43,5.43,0,0,0-2.16.59,9.91,9.91,0,0,0-1.06.57c-.34.21-.68.42-1,.64-.64.45-1.23.89-1.73,1.28l-1.68,1.34s.1-.2.3-.53a10.44,10.44,0,0,1,.91-1.28c.2-.25.43-.52.69-.79s.55-.55.87-.82a9.92,9.92,0,0,1,2.19-1.45,7.26,7.26,0,0,1,1.31-.46,4.66,4.66,0,0,1,1.39-.1l.34,0,.33.08a2.07,2.07,0,0,1,.33.1l.29.13.12.06.08,0,.07,0a1.57,1.57,0,0,1,.26.19,2.32,2.32,0,0,1,.39.44,2.27,2.27,0,0,1,.37.9,3,3,0,0,1,0,.7A2.9,2.9,0,0,1,186,76Z"/><path class="cls-8" d="M145.69,91.8l13.15,4.53c-.23.72-7.37,23.21-6.56,20.79,0,0-2.38,3.77-8.24,1.85s-5.83-6.71-5.83-6.71S145.69,91.8,145.69,91.8Z"/><path class="cls-14" d="M143,98.65l13.88,4.19s-3.25,9.66-3.2,9.68-2,3.32-7.89,1.4-5.65-5.81-5.65-5.81S143,98.65,143,98.65Z"/><path class="cls-13" d="M143.19,97.32l13.89.86s0,2.79,0,5.16c0,.35-4,.7-4.46.74a24.73,24.73,0,0,1-10-1.36C142.88,100.31,143.19,97.32,143.19,97.32Z"/><path class="cls-6" d="M118.63,63.88c-1.08,17.31,13.07,32.29,31.6,33.44s34.43-11.95,35.51-29.26-13.07-32.29-31.6-33.44S119.71,46.56,118.63,63.88Z"/><path class="cls-8" d="M122.23,63.68c.93-9.63,5.65-18.48,15.41-21.63a40.32,40.32,0,0,1,15.5-1.37c5.12.4,10.56,1.07,15.26,3.23,8.42,3.86,12.41,12,12.74,20.83,0,.87,0,1.74,0,2.6-.05,2,0,4-.22,6a46.21,46.21,0,0,1-3.16,13.1,29.55,29.55,0,0,1-9.89,12.89,27.44,27.44,0,0,1-8.53,4,27.79,27.79,0,0,1-14.86.45,31.28,31.28,0,0,1-9.75-4.18,27.71,27.71,0,0,1-10.49-13.46,42.53,42.53,0,0,1-2.55-14.29,45,45,0,0,1,.49-8C122.2,63.82,122.22,63.75,122.23,63.68Z"/><path class="cls-13" d="M143.94,73.77a4.59,4.59,0,1,1-4.46-5.09A4.78,4.78,0,0,1,143.94,73.77Z"/><path class="cls-15" d="M144,72.61a4.59,4.59,0,1,1-4.45-5.09A4.77,4.77,0,0,1,144,72.61Z"/><path class="cls-16" d="M142.43,71.22a1.84,1.84,0,0,1-3.67-.09,1.84,1.84,0,0,1,3.67.09Z"/><path class="cls-13" d="M171.17,74.68a4.59,4.59,0,1,1-4.45-5.08A4.78,4.78,0,0,1,171.17,74.68Z"/><path class="cls-15" d="M171.2,73.52a4.59,4.59,0,1,1-4.46-5.08A4.78,4.78,0,0,1,171.2,73.52Z"/><path class="cls-16" d="M169.66,72.14a1.84,1.84,0,1,1-1.79-1.85A1.83,1.83,0,0,1,169.66,72.14Z"/><path class="cls-14" d="M153.45,71s-1.11,6,1.77,5.68c5.56-.56,4.72,11.21-3.26,6.23-3-1.89-1.23-12-1.23-12Z"/><path class="cls-17" d="M158,88.7s-11.19,1-16-5.69c0,0-5.28,11.51,6.48,13.9C155.94,98.41,158,88.7,158,88.7Z"/><path class="cls-18" d="M153.71,95.89a6.48,6.48,0,0,1-5.2,1,10.37,10.37,0,0,1-5.63-2.79A9.86,9.86,0,0,1,142,93s0,0,0,0a0,0,0,0,1,0,0,8.33,8.33,0,0,1-1.11-4.26C147.65,87.4,152.05,93,153.71,95.89Z"/><path class="cls-16" d="M158,88.7h0l-.06.23c-1.09.14-3.25,2.34-5.92,2a12.56,12.56,0,0,1-4.8-1.6,14.06,14.06,0,0,1-2.63-1.73,6.94,6.94,0,0,1-1.13-3C148.74,89.55,158,88.7,158,88.7Z"/><path class="cls-19" d="M148.39,97.49c-3.52-.72-5.93-2.3-7.19-4.7-2.26-4.36.18-9.79.28-10a.6.6,0,0,1,.5-.35.63.63,0,0,1,.55.25c4.52,6.36,15.31,5.45,15.42,5.44a.61.61,0,0,1,.51.2.57.57,0,0,1,.14.51c0,.1-2.06,9.26-9,8.82A8.33,8.33,0,0,1,148.39,97.49Zm-6.17-13.28c-.56,1.67-1.42,5.2.06,8.05,1.08,2.06,3.21,3.43,6.35,4.06,5.66,1.15,8-4.8,8.59-7C154.6,89.43,146.62,89.27,142.22,84.21Z"/><path class="cls-20" d="M162.36,88.37a4.67,4.67,0,1,0,4.94-4.29A4.61,4.61,0,0,0,162.36,88.37Z"/><path class="cls-20" d="M129.13,83.34a4.67,4.67,0,1,0,5-4.28A4.63,4.63,0,0,0,129.13,83.34Z"/><path class="cls-6" d="M131.31,63.11a11.12,11.12,0,0,1,.72-1c.23-.27.52-.64.85-1A15.3,15.3,0,0,1,134,60.09,15,15,0,0,1,135.4,59a11.76,11.76,0,0,1,1.54-.88,8.88,8.88,0,0,1,1.63-.64,11.87,11.87,0,0,1,1.64-.32,11.54,11.54,0,0,1,1.56,0,12,12,0,0,1,1.43.32c.44.19.86.39,1.25.59a8.07,8.07,0,0,1,1,.76,4.57,4.57,0,0,1,.8.78c.22.27.4.53.55.73a8.08,8.08,0,0,1,.45.69,5.61,5.61,0,0,1-.7-.06c-.21,0-.48-.06-.77-.12a7.72,7.72,0,0,0-1-.15c-.36,0-.73-.14-1.15-.17s-.84-.06-1.28-.12-.92,0-1.38,0l-1.44.08-.74.09a4.78,4.78,0,0,0-.73.11c-.24,0-.48.1-.72.13s-.49.13-.72.18c-.47.1-.93.26-1.37.39-.22.05-.44.17-.65.23l-.61.22-1.08.46c-.33.14-.62.29-.85.4l-.56.28Z"/><path class="cls-13" d="M121.71,64a69.8,69.8,0,0,1,.09-8.58C121.52,60.29,121.71,64,121.71,64Z"/><path class="cls-6" d="M137.56,44.28S129,61.76,120.29,65.52c0-1.89,1.37-8.54,1.62-11.9A36,36,0,0,1,153,35.83v0l.51.06h.51v.06C167.14,37.54,164.92,19,183.29,45c4,15,2.74,18.69,2.49,20.56C165.46,46.16,137.56,44.28,137.56,44.28Z"/><path class="cls-6" d="M144.65,56.67A40,40,0,0,0,172,64.77c15.07-1.31,27.5-5.1,20.79-17.07-5.4-9.62-13.35-20.51-34-21.78a30.06,30.06,0,0,0-13.92,2.63,16,16,0,0,1-8.42.74,13,13,0,0,0-9.36,1.7c-11.91,7.61-10.74,16.44-11.35,24.39-.87,11.46,7.35,27,7.35,27s1.2-11.18,3.47-14.9a102.43,102.43,0,0,0,8.27-18.23Z"/><path class="cls-21" d="M139.39,110.52h0c-15.13,22.12-21.58,54.41-23.1,71.88l-3.45-32.8,12.8-21.5v-8.58Z"/><path class="cls-21" d="M155.16,128.6l2.06,9-19.78,44.8c1.78-10.57,4-21.52,7.26-30.56,5.78-16,8.84-23.94,9.7-37.8l4.43,9.06Z"/><path class="cls-22" d="M140.85,199.6h-.09a.5.5,0,0,1-.4-.58c.19-1-1.1-5.47-1.64-6.7-5.56-12.83-1-31.39,2.26-41.31a.5.5,0,1,1,1,.31c-3.18,9.79-7.72,28.08-2.29,40.6.44,1,2,5.81,1.7,7.28A.49.49,0,0,1,140.85,199.6Z"/><path class="cls-11" d="M107,140.44c-1.64-10.38,10.17-22.37,19.73-26.76,2.6-1.19-1.07.48,0,0,3.65-1.64-2.36,8.08-5.24,13.48s-.39,43.79,29.28,43.64c32.85-.17,29.93-3.63,29.93-3.63l.3,15.23s-30.62,2.64-45.65.18C116.9,179.56,109.54,156.76,107,140.44Z"/><ellipse class="cls-22" cx="143.5" cy="201" rx="3.17" ry="5.5"/><path class="cls-16" d="M141.67,201.16c0,3,1.12,5.34,2.5,5.34s2.5-2.39,2.5-5.34-1.12-5.34-2.5-5.34S141.67,198.21,141.67,201.16Z"/><path class="cls-22" d="M137.5,200.83c0,2.08,1,3.77,2.17,3.77s2.16-1.69,2.16-3.77-1-3.76-2.16-3.76S137.5,198.75,137.5,200.83Z"/><path class="cls-22" d="M144.79,151.4c-4.69,0-8.85-2.63-11.43-7.24-6.1-10.87-2.69-32.79-2.54-33.72a.5.5,0,0,1,1,.16c0,.23-3.51,22.51,2.42,33.08,2.44,4.34,6.38,6.79,10.75,6.72a10.29,10.29,0,0,0,9.07-5.39c3.56-6.87,2.27-33.21,2.25-33.47a.51.51,0,0,1,.48-.53.5.5,0,0,1,.52.48c.06,1.09,1.32,26.87-2.36,34A11.28,11.28,0,0,1,145,151.4Z"/><path class="cls-8" d="M227.89,235.22a19,19,0,0,0,2.38,6.92c1.85,2.74,6.37,7.36,4.09,8.61s-4.6-6-4.85-3,5.81,13.7,2.2,11.3-3.15-4.7-3.15-4.7,2.05,6.86-.05,5.43a8.67,8.67,0,0,1-2.89-4.31s1.13,4.64-.64,3.28-2.9-6-2.9-6,1.4,6.73-.37,5.36-2.65-9-2.4-12,.54-11.44.54-11.44Z"/><path class="cls-8" d="M276,188.17s2.67,28,2.67,35.33-2.67,17.33-5.34,23.33-9.33,5.34-8,.67,3.34-23.33,3.34-28.67-2-32-2-32Z"/><path class="cls-8" d="M219.83,183.5s-2.67,28-2.67,35.33,2.67,17.34,5.33,23.34,9.34,5.33,8,.66-3.33-23.33-3.33-28.66,2-32,2-32Z"/><path class="cls-8" d="M249.33,260.17s-2.66,7.33,0,20,2,30.66,2,30.66v20L258,329.5s7.33-22,4.67-31.33-.67-36-.67-36Z"/><path class="cls-8" d="M228,260.17s-2.67,7.33,0,20,2,30.66,2,30.66v20l6.67-1.33s7.33-22,4.66-31.33-.66-36-.66-36Z"/><path class="cls-23" d="M251.35,310.17c0,.42,0,.66,0,.66v20L258,329.5a131,131,0,0,0,4.68-19.33Z"/><path class="cls-23" d="M230,310.17c0,.42,0,.66,0,.66v20l6.67-1.33a131,131,0,0,0,4.68-19.33Z"/><path class="cls-23" d="M231.2,172.39s-4.81-5.91-11.19,7.78-3.24,15.46-3.24,15.46l12.61,2,7-27.63Z"/><path class="cls-24" d="M268.89,208c-1.9,11-4.17,19.48-4.17,19.48H225.23S225,186.66,228,177.35a10.48,10.48,0,0,1,3.21-5,11.09,11.09,0,0,1,5.16-2.39,15.37,15.37,0,0,1,5-.12L253,170a17.71,17.71,0,0,1,6.11.89,12.65,12.65,0,0,1,5.19,3.16,11.24,11.24,0,0,1,2.21,3.33C270,185.39,270.79,197,268.89,208Z"/><path class="cls-8" d="M274.24,144.36s5.81-4.5,8.9.22-5.56,14.63-12.6,10Z"/><path class="cls-13" d="M272.84,148.23l-1.91,5.26c6.37,2.9,12.55-5.43,9.8-7.5C278.52,144.32,274.61,146.79,272.84,148.23Z"/><path class="cls-13" d="M281.32,148.19v-.13c0-.08,0-.2,0-.35a2.33,2.33,0,0,0-.36-1.08,1.75,1.75,0,0,0-.23-.24.83.83,0,0,0-.15-.11l0,0h0s0,0,0,0h0l-.1-.05a.75.75,0,0,0-.18-.09L280,146l-.2-.06a.71.71,0,0,0-.2,0,4.38,4.38,0,0,0-1.82.12c-.32.07-.63.18-.94.28l-.9.36c-.58.25-1.12.52-1.59.75l-1.55.79s.11-.14.32-.37a9.45,9.45,0,0,1,.93-.87c.2-.17.43-.35.68-.53s.53-.35.82-.51a8.06,8.06,0,0,1,2-.81,5.22,5.22,0,0,1,1.12-.16,3.89,3.89,0,0,1,1.13.14l.27.09a5.63,5.63,0,0,1,.49.25,1.27,1.27,0,0,1,.21.15l.09.07.05,0,.05,0c.07.06.12.13.18.19a2.25,2.25,0,0,1,.24.42,1.66,1.66,0,0,1,.15.78,2.76,2.76,0,0,1-.07.57,2.46,2.46,0,0,1-.12.34Z"/><path class="cls-8" d="M233.77,133.61s-2.81-6.8-7.83-4.24-2.44,15.47,6,14.94Z"/><path class="cls-13" d="M233.06,137.66l-.95,5.51c-7-.65-8.19-10.94-4.78-11.37C230.08,131.45,232.25,135.54,233.06,137.66Z"/><path class="cls-13" d="M225.73,133.41l.06-.1c0-.08.11-.17.19-.3a2.17,2.17,0,0,1,.86-.76,1,1,0,0,1,.32-.1l.17,0h.19l.2,0,.19,0,.2,0,.2.07a4.36,4.36,0,0,1,1.52,1,9.07,9.07,0,0,1,.67.72c.21.25.42.5.61.76.38.5.71,1,1,1.43l.95,1.46a4.75,4.75,0,0,0-.09-.47,9.44,9.44,0,0,0-.37-1.23,8.55,8.55,0,0,0-.34-.79c-.13-.28-.28-.57-.45-.86a8.19,8.19,0,0,0-1.32-1.68,5.16,5.16,0,0,0-.9-.7,4,4,0,0,0-1.05-.44l-.27-.05a1.27,1.27,0,0,0-.28,0h-.28a1,1,0,0,0-.25,0h-.18l-.07,0-.25.08a2.13,2.13,0,0,0-.42.23,2,2,0,0,0-.51.61,2.22,2.22,0,0,0-.22.53,2.73,2.73,0,0,0-.07.36A1.09,1.09,0,0,0,225.73,133.41Z"/><path class="cls-8" d="M252.87,155.92l-11.34.12c0,.61-.29,19.84-.29,17.76,0,0,.87,3.53,5.9,3.55s6.23-3.68,6.23-3.68S252.87,155.92,252.87,155.92Z"/><path class="cls-14" d="M253.19,161.91l-11.82-.33s0,8.3,0,8.3.7,3.1,5.73,3.12,5.87-3,5.87-3S253.19,161.91,253.19,161.91Z"/><path class="cls-13" d="M253.37,160.83l-11-2.91-1.35,4c-.09.26,2.93,1.57,3.26,1.72a20.17,20.17,0,0,0,8.09,1.52C252.84,163.22,253.37,160.83,253.37,160.83Z"/><path class="cls-6" d="M281,141.31c-3.63,13.67-18.44,21.6-33.06,17.71S224.39,140.9,228,127.24s18.43-21.6,33.06-17.71S284.62,127.65,281,141.31Z"/><path class="cls-8" d="M278.26,140.23c1.76-7.68.39-15.74-6.34-20.7a32.85,32.85,0,0,0-11.63-5c-4.06-1-8.44-1.9-12.63-1.44-7.51.82-12.68,6-15.23,12.82-.25.66-.47,1.33-.68,2-.47,1.55-1,3.07-1.36,4.66a37.56,37.56,0,0,0-.93,10.93A24,24,0,0,0,233.78,156a22.36,22.36,0,0,0,5.55,5.34,22.69,22.69,0,0,0,11.38,4.17,25.44,25.44,0,0,0,8.61-.71,22.62,22.62,0,0,0,11.58-7.7,34.5,34.5,0,0,0,5.66-10.4,37,37,0,0,0,1.67-6.28Z"/><path class="cls-13" d="M258.87,142.43a3.74,3.74,0,1,0,4.76-2.78A3.89,3.89,0,0,0,258.87,142.43Z"/><path class="cls-15" d="M259.15,141.53a3.74,3.74,0,1,0,4.76-2.79A3.9,3.9,0,0,0,259.15,141.53Z"/><path class="cls-16" d="M260.7,140.85a1.49,1.49,0,1,0,1.86-1A1.48,1.48,0,0,0,260.7,140.85Z"/><path class="cls-13" d="M237.58,136.12a3.74,3.74,0,1,0,4.75-2.79A3.9,3.9,0,0,0,237.58,136.12Z"/><path class="cls-15" d="M237.86,135.21a3.74,3.74,0,1,0,4.75-2.78A3.9,3.9,0,0,0,237.86,135.21Z"/><path class="cls-16" d="M239.4,134.54a1.49,1.49,0,1,0,1.86-1A1.48,1.48,0,0,0,239.4,134.54Z"/><path class="cls-14" d="M252.23,137.85s-.69,4.91-2.84,3.94c-4.15-1.87-6.54,7.45.92,5.65,2.81-.67,4.05-9,4.05-9Z"/><path class="cls-17" d="M244.14,150.35s8.38,3.68,13.82-.28c0,0,1.11,10.26-8.59,9.07C243.24,158.39,244.14,150.35,244.14,150.35Z"/><path class="cls-18" d="M245.61,157a5.24,5.24,0,0,0,3.76,2.13,8.44,8.44,0,0,0,5.07-.7,7.92,7.92,0,0,0,1-.67s0,0,0,0h0a6.88,6.88,0,0,0,2-3C252.49,152,247.65,155.18,245.61,157Z"/><path class="cls-16" d="M244.14,150.35h0s0,.07,0,.19c.81.39,1.92,2.65,4.06,3.11a10.21,10.21,0,0,0,4.12,0,10.56,10.56,0,0,0,2.48-.66,5.56,5.56,0,0,0,1.65-2C251.09,153.4,244.14,150.35,244.14,150.35Z"/><path class="cls-19" d="M248.37,159.44c-5.51-1.46-4.73-9.07-4.72-9.15a.48.48,0,0,1,.24-.36.48.48,0,0,1,.45,0c.08,0,8.19,3.52,13.33-.23a.5.5,0,0,1,.49-.05.49.49,0,0,1,.29.4c0,.2.51,5-2.37,7.82-1.59,1.53-3.86,2.13-6.77,1.77A6.53,6.53,0,0,1,248.37,159.44Zm-3.79-8.39c-.06,1.85.18,7,4.85,7.61,2.58.32,4.59-.19,5.95-1.5,1.89-1.82,2.13-4.77,2.13-6.21C252.8,153.73,246.59,151.8,244.58,151.05Z"/><path class="cls-20" d="M240.86,149a3.8,3.8,0,1,1-2.71-4.59A3.76,3.76,0,0,1,240.86,149Z"/><path class="cls-20" d="M267.85,153.65a3.81,3.81,0,1,1-2.72-4.58A3.77,3.77,0,0,1,267.85,153.65Z"/><path class="cls-6" d="M271.38,137.45s-.09-.36-.3-.93c-.11-.27-.24-.63-.41-1s-.38-.74-.61-1.14a11.9,11.9,0,0,0-.79-1.16,9,9,0,0,0-1-1.08,7.18,7.18,0,0,0-1.1-.91,10,10,0,0,0-1.18-.68,11.41,11.41,0,0,0-1.22-.38c-.4-.06-.81-.1-1.19-.12s-.76.08-1.11.14a6,6,0,0,0-1,.32,3.82,3.82,0,0,0-.81.4c-.24.15-.45.3-.62.42a6,6,0,0,0-.52.42,3.76,3.76,0,0,0,.55.13c.18,0,.39.08.63.11a5.4,5.4,0,0,1,.8.14c.29.07.61.08.94.16s.66.17,1,.24.71.24,1.08.32l1.1.43.54.26a4.53,4.53,0,0,1,.54.27c.17.11.35.21.52.3a5.43,5.43,0,0,1,.51.32c.34.2.65.44,1,.66a3.68,3.68,0,0,1,.44.34,4.54,4.54,0,0,1,.41.33q.4.33.72.63c.22.19.41.38.56.52s.28.28.36.37Z"/><path class="cls-6" d="M235.24,131.13s.22-.31.62-.76c.21-.21.45-.49.74-.75s.62-.55,1-.84a11.22,11.22,0,0,1,1.16-.79,9.23,9.23,0,0,1,1.29-.66,7.92,7.92,0,0,1,1.35-.45,9.13,9.13,0,0,1,1.35-.19,10.56,10.56,0,0,1,1.27.08,9.65,9.65,0,0,1,1.15.33c.35.17.68.35,1,.53a7.59,7.59,0,0,1,.8.66,3.82,3.82,0,0,1,.61.67c.17.23.31.44.42.62a5.51,5.51,0,0,1,.34.58,4.2,4.2,0,0,1-.57-.08c-.17,0-.39-.07-.62-.14s-.5-.1-.8-.16-.59-.14-.93-.18-.68-.09-1-.16-.75,0-1.12-.09h-1.18l-.6.05a4.16,4.16,0,0,0-.6,0c-.2,0-.4.06-.59.08s-.4.09-.59.12c-.39.06-.77.17-1.14.26a4.64,4.64,0,0,0-.53.16c-.18.05-.35.09-.51.15-.32.12-.63.22-.9.33s-.51.21-.71.29-.36.15-.47.21Z"/><path class="cls-13" d="M278.59,140.58a57,57,0,0,0,2.14-6.66C279.68,137.79,278.59,140.58,278.59,140.58Z"/><path class="cls-6" d="M271.41,121.28s2.1,15.72,7.87,20.87c.5-1.45,1.15-7,1.82-9.62a29.33,29.33,0,0,0-19.47-21.77v0l-.41-.09-.4-.13v0c-10.55-2.11-8.37-.48-24.3,5-7,10.59-7.58,8.24-7.87,9.75C249.35,115.54,271.41,121.28,271.41,121.28Z"/><path class="cls-25" d="M264.26,174a114.55,114.55,0,0,0-5.58,15.1c-2.51,9.21-3.8,38.4-3.8,38.4h-5s1.93-34.72,4.59-43.71a122.64,122.64,0,0,1,4.56-12.95A12.65,12.65,0,0,1,264.26,174Z"/><path class="cls-25" d="M236.36,170c-1.12,4.54-3.19,12.79-4.92,19.12-2.51,9.21-.8,38.4-.8,38.4h-5s-1.07-34.72,1.59-43.71c1.53-5.17,3-9.06,3.93-11.42A11.09,11.09,0,0,1,236.36,170Z"/><path class="cls-23" d="M265.47,197.63l13.12,2.17s-1.86-18.59-6.56-22.45-7.77-3.33-7.77-3.33Z"/><path class="cls-25" d="M225.68,227.52h39s3.66,17.31,1.47,23.31-2,16.67-2,16.67H245.78l-2.38-14.67h-1l0,14.67h-18.1Z"/><path class="cls-26" d="M237.67,325.5h0a5.84,5.84,0,0,1-6.89.3l-.45-.3L215.55,333a3.09,3.09,0,0,0-1.67,2.53h0a3.07,3.07,0,0,0,3.06,3.26h19a2.87,2.87,0,0,0,2.71-1.92l1-2.76a5.57,5.57,0,0,0-.09-3.94Z"/><path class="cls-6" d="M258.67,325.5h0a5.84,5.84,0,0,1-6.89.3l-.45-.3L236.55,333a3.09,3.09,0,0,0-1.67,2.53h0a3.07,3.07,0,0,0,3.06,3.26h19a2.87,2.87,0,0,0,2.71-1.92l1-2.76a5.57,5.57,0,0,0-.09-3.94Z"/><path class="cls-8" d="M267,239.17a18.82,18.82,0,0,1-3.67,6.33c-2.33,2.33-7.66,6-5.66,7.67s5.66-5,5.33-2-8.33,12.33-4.33,10.66,4-4,4-4-3.34,6.34-1,5.34a8.61,8.61,0,0,0,3.66-3.67s-2,4.33,0,3.33,4-5.33,4-5.33-2.66,6.33-.66,5.33,4.33-8.33,4.66-11.33S275,240.17,275,240.17Z"/><polygon class="cls-6" points="67.33 337.17 37.31 330.78 37.33 330.5 36.67 330.64 36 330.5 36.02 330.78 6 337.17 5.33 340.5 36.67 340.5 68 340.5 67.33 337.17"/><rect class="cls-21" x="32.67" y="260.17" width="9.33" height="71.33"/><rect class="cls-6" y="237.5" width="75.33" height="26" rx="12"/><rect class="cls-27" x="315.33" y="215.5" width="8.67" height="114"/><path class="cls-25" d="M340.67,338.83H277.33A7.35,7.35,0,0,1,270,331.5h0a7.35,7.35,0,0,1,7.33-7.33h63.34A7.35,7.35,0,0,1,348,331.5h0A7.35,7.35,0,0,1,340.67,338.83Z"/><path class="cls-28" d="M270,332.17a7.35,7.35,0,0,0,7.3,6.66h63.34a7.36,7.36,0,0,0,7.3-6.66Z"/><ellipse class="cls-28" cx="320.18" cy="206.94" rx="26.47" ry="21.46" transform="translate(-60.91 217.47) rotate(-34.46)"/><ellipse class="cls-25" cx="318.02" cy="203.22" rx="26.47" ry="21.46" transform="translate(-59.18 215.6) rotate(-34.46)"/><ellipse class="cls-16" cx="318.62" cy="204.01" rx="21.38" ry="17.33" transform="translate(-59.52 216.08) rotate(-34.46)"/><path class="cls-19" d="M319.05,205.67c-1.37,1.28-3,1.75-3.7,1s-.1-2.34,1.27-3.62,15.21-11.81,15.21-11.81S320.42,204.38,319.05,205.67Z"/></g></g></svg>